<?xml version="1.0" encoding="UTF-8" standalone="no" ?>
<!DOCTYPE svg PUBLIC "-//W3C//DTD SVG 1.1//EN" "http://www.w3.org/Graphics/SVG/1.1/DTD/svg11.dtd">
<svg xmlns="http://www.w3.org/2000/svg" xmlns:xlink="http://www.w3.org/1999/xlink" version="1.1" width="1080" height="1080" viewBox="0 0 1080 1080" xml:space="preserve">
<desc>Created with Fabric.js 5.2.4</desc>
<defs>
</defs>
<rect x="0" y="0" width="100%" height="100%" fill="transparent"></rect>
<g transform="matrix(1 0 0 1 540 540)" id="d0cde3c8-13c6-412e-88cc-4108c7724630"  >
<rect style="stroke: none; stroke-width: 1; stroke-dasharray: none; stroke-linecap: butt; stroke-dashoffset: 0; stroke-linejoin: miter; stroke-miterlimit: 4; fill: rgb(255,255,255); fill-rule: nonzero; opacity: 1; visibility: hidden;" vector-effect="non-scaling-stroke"  x="-540" y="-540" rx="0" ry="0" width="1080" height="1080" />
</g>
<g transform="matrix(1 0 0 1 540 540)" id="c05bf26f-f908-47bb-bd53-3d3bc7217256"  >
</g>
<g transform="matrix(1 0 0 1 540 540)"  >
<circle style="stroke: none; stroke-width: 1; stroke-dasharray: none; stroke-linecap: butt; stroke-dashoffset: 0; stroke-linejoin: miter; stroke-miterlimit: 4; fill: rgb(28,28,28); fill-rule: nonzero; opacity: 1;" vector-effect="non-scaling-stroke"  cx="0" cy="0" r="160" />
</g>
<g transform="matrix(1 0 0 1 636.62 651.17)"  >
<path style="stroke: none; stroke-width: 1; stroke-dasharray: none; stroke-linecap: butt; stroke-dashoffset: 0; stroke-linejoin: miter; stroke-miterlimit: 4; fill: rgb(255,255,255); fill-rule: evenodd; opacity: 1;" vector-effect="non-scaling-stroke"  transform=" translate(-264.22, -265.05)" d="M 271.607 269.434 C 265.702 267.155 260.147 264.201 254.714 261.038 C 254.781 260.611 255.076 260.952 255.226 260.788 C 255.312 260.541 254.718 260.332 255.195 259.98 C 255.634 259.656 256 259.789 256.38 259.951 C 258.379 260.805 260.126 262.148 262.216 262.86 C 262.931 263.103 263.783 263.158 264.39 263.869 C 264.763 264.307 265.583 264.117 266.169 264.479 C 266.537 264.706 267.03 264.804 267.444 265.056 C 269.093 266.059 270.897 266.556 272.829 266.562 C 273.177 266.564 273.502 266.677 273.544 266.996 C 273.656 267.864 274.099 268.695 273.419 269.622 C 272.924 270.295 272.428 270.4 271.744 270.288 C 270.096 270.019 268.597 269.316 267.1 268.628 C 265.35 267.823 263.666 266.881 261.947 266.016 C 259.635 264.852 257.429 263.513 255.172 262.258 C 254.958 262.139 254.529 262.046 254.683 261.724 C 254.799 261.482 255.152 261.692 255.364 261.804 C 256.707 262.506 258.012 263.271 259.308 264.059 C 260.55 264.814 261.89 265.418 263.218 266.02 C 265.364 266.994 267.453 268.093 269.652 268.949 C 270.279 269.193 270.913 269.433 271.607 269.434 Z" stroke-linecap="round" />
</g>
<g transform="matrix(1 0 0 1 662.49 657.48)"  >
<path style="stroke: none; stroke-width: 1; stroke-dasharray: none; stroke-linecap: butt; stroke-dashoffset: 0; stroke-linejoin: miter; stroke-miterlimit: 4; fill: rgb(255,255,255); fill-rule: evenodd; opacity: 1;" vector-effect="non-scaling-stroke"  transform=" translate(-290.09, -271.35)" d="M 296.356 271.564 C 296.832 272.053 296.206 272.499 296.088 272.679 C 295.768 273.166 296.21 273.84 295.797 274.057 C 295.171 274.387 294.674 275.017 293.779 274.861 C 292.046 274.559 290.39 274.01 288.716 273.511 C 287.502 273.15 286.279 272.813 285.145 272.224 C 284.64 271.962 284.186 271.648 283.897 271.148 C 283.6 270.636 283.537 270.167 283.93 269.609 C 284.22 269.196 284.388 268.683 284.738 268.293 C 285.071 267.922 285.428 267.618 285.963 267.968 C 286.339 268.213 286.792 268.119 287.203 268.221 C 288.856 268.632 290.599 268.683 292.164 269.446 C 293.325 270.012 294.553 270.396 295.774 270.801 C 296.123 270.917 296.542 271.022 296.356 271.564 Z" stroke-linecap="round" />
</g>
<g transform="matrix(1 0 0 1 661.7 628)"  >
<path style="stroke: none; stroke-width: 1; stroke-dasharray: none; stroke-linecap: butt; stroke-dashoffset: 0; stroke-linejoin: miter; stroke-miterlimit: 4; fill: rgb(255,255,255); fill-rule: evenodd; opacity: 1;" vector-effect="non-scaling-stroke"  transform=" translate(-289.31, -241.87)" d="M 281.197 239.347 C 281.489 239.445 281.677 239.508 281.859 239.568 C 281.97 239.465 281.89 239.387 281.856 239.298 C 281.785 239.116 281.42 239.086 281.542 238.845 C 281.689 238.554 281.93 238.887 282.134 238.847 C 282.175 238.54 281.796 238.495 281.763 238.251 C 282.31 237.816 282.8 237.97 283.357 238.274 C 284.872 239.099 286.448 239.788 288.138 240.193 C 288.777 240.345 289.154 241.108 289.873 241.055 C 290.785 240.988 291.616 241.337 292.313 241.753 C 293.515 242.47 294.854 242.52 296.123 242.894 C 296.48 242.999 296.885 242.77 297.199 243.082 C 297.301 243.183 297.524 243.336 297.356 243.424 C 296.783 243.727 297.116 244.178 297.055 244.583 C 296.941 245.336 296.234 245.549 295.607 245.682 C 294.618 245.89 293.624 245.694 292.695 245.373 C 289.136 244.146 285.692 242.654 282.461 240.708 C 281.969 240.412 281.362 240.162 281.197 239.347 Z" stroke-linecap="round" />
</g>
<g transform="matrix(1 0 0 1 648.74 641.02)"  >
<path style="stroke: none; stroke-width: 1; stroke-dasharray: none; stroke-linecap: butt; stroke-dashoffset: 0; stroke-linejoin: miter; stroke-miterlimit: 4; fill: rgb(255,255,255); fill-rule: evenodd; opacity: 1;" vector-effect="non-scaling-stroke"  transform=" translate(-276.34, -254.9)" d="M 268.634 250.923 C 269.181 251.043 269.753 251.154 270.317 251.293 C 273.897 252.176 277.348 253.434 280.755 254.828 C 282.061 255.363 283.327 256.002 284.701 256.37 C 285.095 256.475 285.419 256.7 285.058 257.193 C 284.972 257.308 284.944 257.471 284.908 257.617 C 284.665 258.59 283.979 259.026 282.972 258.824 C 281.94 258.618 281.007 258.142 280.074 257.684 C 276.128 255.747 272.125 253.952 267.901 252.694 C 267.366 252.534 267.36 252.474 267.718 252.071 C 267.757 252.027 267.78 251.943 267.769 251.886 C 267.643 251.209 268.137 251.099 268.634 250.923 Z" stroke-linecap="round" />
</g>
<g transform="matrix(1 0 0 1 689.51 657.82)"  >
<path style="stroke: none; stroke-width: 1; stroke-dasharray: none; stroke-linecap: butt; stroke-dashoffset: 0; stroke-linejoin: miter; stroke-miterlimit: 4; fill: rgb(255,255,255); fill-rule: evenodd; opacity: 1;" vector-effect="non-scaling-stroke"  transform=" translate(-317.11, -271.7)" d="M 309.731 270.204 C 311.329 270.683 312.604 271.592 314.054 272.055 C 315.52 272.523 316.947 273.122 318.486 273.357 C 317.229 272.924 315.97 272.494 314.714 272.057 C 313.273 271.555 311.913 270.874 310.543 270.208 C 309.855 269.874 309.846 269.426 310.161 268.945 C 310.469 268.476 311.049 268.33 311.499 268.701 C 312.414 269.457 313.527 269.825 314.605 270.031 C 316.483 270.388 318.266 271.161 320.201 271.261 C 320.647 271.284 321.052 271.566 321.548 271.585 C 322.106 271.605 322.581 271.589 323.068 271.267 C 323.352 271.08 323.707 270.652 324.073 270.967 C 324.373 271.225 324.612 271.622 324.409 272.119 C 324.332 272.308 324.419 272.566 324.432 272.792 C 324.514 274.116 323.728 274.977 322.378 274.908 C 320.568 274.814 318.834 274.303 317.117 273.752 C 314.868 273.03 312.653 272.224 310.597 271.034 C 310.294 270.859 309.964 270.719 309.731 270.204 Z" stroke-linecap="round" />
</g>
<g transform="matrix(1 0 0 1 688.76 616.06)"  >
<path style="stroke: none; stroke-width: 1; stroke-dasharray: none; stroke-linecap: butt; stroke-dashoffset: 0; stroke-linejoin: miter; stroke-miterlimit: 4; fill: rgb(255,255,255); fill-rule: evenodd; opacity: 1;" vector-effect="non-scaling-stroke"  transform=" translate(-316.36, -229.94)" d="M 323.134 232.61 C 323.301 234.398 322.569 235.011 321.029 234.547 C 319.825 234.185 318.793 233.472 317.762 232.786 C 315.356 231.187 313.006 229.507 310.751 227.695 C 310.199 227.252 309.962 226.673 309.716 226.078 C 309.63 225.87 309.456 225.406 309.644 225.407 C 310.029 225.408 310.338 224.993 310.778 225.298 C 312.745 226.661 314.823 227.846 316.868 229.085 C 317.77 229.631 318.63 230.248 319.545 230.769 C 320.164 231.122 320.831 231.479 321.572 230.991 C 321.661 230.932 321.908 230.935 321.926 230.977 C 322.229 231.661 323.022 232.016 323.134 232.61 Z" stroke-linecap="round" />
</g>
<g transform="matrix(1 0 0 1 654.5 603.62)"  >
<path style="stroke: none; stroke-width: 1; stroke-dasharray: none; stroke-linecap: butt; stroke-dashoffset: 0; stroke-linejoin: miter; stroke-miterlimit: 4; fill: rgb(255,255,255); fill-rule: evenodd; opacity: 1;" vector-effect="non-scaling-stroke"  transform=" translate(-282.11, -217.5)" d="M 280.915 218.199 C 279.796 217.379 278.487 216.928 277.376 216.12 C 277.049 215.882 276.757 215.588 276.408 215.391 C 275.831 215.066 276.206 214.64 276.353 214.375 C 276.495 214.117 276.868 213.967 277.255 214.192 C 278.838 215.109 280.542 215.805 282.261 216.362 C 283.487 216.76 284.599 217.507 285.985 217.553 C 286.51 217.57 287.142 217.867 287.742 218.009 C 288.543 218.197 287.952 218.798 287.963 219.217 C 287.965 219.283 287.778 219.36 287.784 219.42 C 287.812 219.676 288.48 219.765 288.055 220.108 C 287.48 220.574 286.941 221.065 286.006 220.866 C 284.52 220.551 283.153 219.98 281.804 219.34 C 279.974 218.473 278.091 217.692 276.523 216.36 C 276.407 216.261 276.282 216.173 276.175 216.066 C 276.064 215.957 275.964 215.804 276.074 215.664 C 276.214 215.487 276.41 215.555 276.541 215.686 C 277.68 216.835 279.21 217.315 280.581 218.065 C 280.685 218.122 280.803 218.154 280.915 218.199 Z" stroke-linecap="round" />
</g>
<g transform="matrix(1 0 0 1 688.3 635)"  >
<path style="stroke: none; stroke-width: 1; stroke-dasharray: none; stroke-linecap: butt; stroke-dashoffset: 0; stroke-linejoin: miter; stroke-miterlimit: 4; fill: rgb(255,255,255); fill-rule: evenodd; opacity: 1;" vector-effect="non-scaling-stroke"  transform=" translate(-315.91, -248.87)" d="M 309.464 246.481 C 309.065 246.131 308.7 245.728 308.259 245.446 C 307.743 245.116 307.598 244.709 307.757 244.16 C 307.851 243.834 308.187 243.869 308.4 243.88 C 308.949 243.906 309.396 244.187 309.638 244.691 C 309.696 244.812 309.62 245.009 309.846 244.987 C 310.949 244.879 311.63 245.791 312.554 246.123 C 312.837 246.225 313.117 246.438 313.411 246.579 C 314.27 246.991 315.19 247.307 315.6 248.315 C 315.696 248.549 315.948 248.912 316.303 248.746 C 317.385 248.241 318.208 248.954 319.08 249.32 C 320.514 249.921 321.856 250.73 323.318 251.275 C 323.483 251.336 323.712 251.362 323.678 251.587 C 323.636 251.868 323.357 251.528 323.232 251.732 C 323.447 252.057 323.968 252.311 323.432 252.843 C 323.241 253.034 323.616 253.25 323.848 253.352 C 324.024 253.429 324.191 253.516 324.088 253.738 C 323.963 254.007 323.787 253.802 323.644 253.748 C 321.036 252.764 318.575 251.475 316.143 250.125 C 314.001 248.937 311.859 247.749 309.718 246.561 C 309.634 246.535 309.549 246.508 309.464 246.481 Z" stroke-linecap="round" />
</g>
<g transform="matrix(1 0 0 1 669.15 617.28)"  >
<path style="stroke: none; stroke-width: 1; stroke-dasharray: none; stroke-linecap: butt; stroke-dashoffset: 0; stroke-linejoin: miter; stroke-miterlimit: 4; fill: rgb(255,255,255); fill-rule: evenodd; opacity: 1;" vector-effect="non-scaling-stroke"  transform=" translate(-296.75, -231.16)" d="M 299.346 233.963 C 297.956 233.241 296.567 232.513 295.229 231.691 C 296.137 232.688 298.13 233.805 299.346 233.963 Z M 301.176 232.117 C 301.278 232.373 300.299 231.789 300.929 232.453 C 300.946 232.47 300.973 232.506 300.967 232.515 C 300.645 233.023 300.705 233.438 301.195 233.828 C 301.324 233.93 300.42 234.905 300.13 234.952 C 299.693 235.023 299.265 234.951 298.861 234.794 C 296.579 233.908 294.624 232.543 292.975 230.739 C 292.166 229.856 292.149 228.849 292.588 227.802 C 292.824 227.239 293.169 227.209 293.641 227.613 C 294.138 228.038 294.659 228.438 295.197 228.81 C 295.817 229.239 296.487 229.584 297.084 230.065 C 297.868 230.696 298.908 230.84 299.808 231.268 C 300.305 231.504 300.806 231.707 301.176 232.117 Z" stroke-linecap="round" />
</g>
<g transform="matrix(1 0 0 1 677.55 597.28)"  >
<path style="stroke: none; stroke-width: 1; stroke-dasharray: none; stroke-linecap: butt; stroke-dashoffset: 0; stroke-linejoin: miter; stroke-miterlimit: 4; fill: rgb(255,255,255); fill-rule: evenodd; opacity: 1;" vector-effect="non-scaling-stroke"  transform=" translate(-305.15, -211.15)" d="M 300.368 209.814 C 300.759 209.889 300.994 209.935 301.352 210.004 C 301.205 209.846 301.155 209.747 301.08 209.722 C 300.477 209.524 300.583 209.045 300.735 208.66 C 300.898 208.249 301.341 208.103 301.746 208.223 C 302.407 208.419 303.066 208.655 303.683 208.96 C 304.535 209.382 305.365 209.872 306.276 210.128 C 307.226 210.395 308.168 210.827 309.225 210.503 C 309.724 210.35 310.063 210.747 309.899 211.231 C 309.81 211.495 309.844 211.721 309.88 211.969 C 310.11 213.544 309.066 214.468 307.497 213.997 C 305.285 213.334 303.352 212.107 301.463 210.818 C 301.102 210.571 300.638 210.422 300.368 209.814 Z" stroke-linecap="round" />
</g>
<g transform="matrix(2.29 0 0 2.29 540 540)" id="7fbc60f2-1de5-4b89-b1a6-8f63374bc2ed"  >
<circle style="stroke: rgb(0,0,0); stroke-width: 3; stroke-dasharray: none; stroke-linecap: butt; stroke-dashoffset: 0; stroke-linejoin: miter; stroke-miterlimit: 4; fill: rgb(255,237,78); fill-rule: nonzero; opacity: 1;" vector-effect="non-scaling-stroke"  cx="0" cy="0" r="35" />
</g>
<g transform="matrix(1 0 0 1 673.46 643.79)"  >
<path style="stroke: none; stroke-width: 1; stroke-dasharray: none; stroke-linecap: butt; stroke-dashoffset: 0; stroke-linejoin: miter; stroke-miterlimit: 4; fill: rgb(255,255,255); fill-rule: evenodd; opacity: 1;" vector-effect="non-scaling-stroke"  transform=" translate(-301.06, -257.66)" d="M 299.199 255.915 C 299.099 256.09 299.086 256.184 299.266 256.239 C 299.925 256.439 300.606 256.593 301.227 256.877 C 301.603 257.049 302.332 256.935 302.193 257.743 C 302.171 257.871 302.327 257.831 302.411 257.765 C 302.607 257.613 302.768 257.68 302.957 257.808 C 303.28 258.025 303.618 258.061 304.022 257.958 C 304.769 257.767 305.188 258.259 304.944 258.982 C 304.914 259.069 304.802 259.228 304.855 259.231 C 306.106 259.29 304.533 260.115 305.157 260.331 C 305.006 260.553 304.799 260.67 304.533 260.719 C 303.924 260.831 303.381 260.629 302.845 260.393 C 300.811 259.498 299.122 258.1 297.471 256.658 C 297.073 256.311 296.999 255.738 296.806 255.257 C 296.693 254.975 296.917 254.781 297.136 254.649 C 297.437 254.468 297.486 254.631 297.426 254.897 C 297.995 254.877 298.421 255.209 298.88 255.472 C 299.081 255.587 299.318 255.652 299.199 255.915 Z" stroke-linecap="round" />
</g>
<g transform="matrix(1 0 0 1 638.82 622.45)"  >
<path style="stroke: none; stroke-width: 1; stroke-dasharray: none; stroke-linecap: butt; stroke-dashoffset: 0; stroke-linejoin: miter; stroke-miterlimit: 4; fill: rgb(255,255,255); fill-rule: evenodd; opacity: 1;" vector-effect="non-scaling-stroke"  transform=" translate(-266.43, -236.33)" d="M 266.009 236.313 C 265.969 236.38 265.929 236.446 265.889 236.513 C 266.49 236.817 267.089 237.124 267.695 237.419 C 267.765 237.453 267.893 237.521 267.955 237.393 C 267.997 237.305 267.998 237.159 267.889 237.14 C 267.194 237.023 266.702 236.428 266.009 236.313 Z M 273.143 238.295 C 273.484 238.486 274.016 238.276 274.126 238.969 C 274.207 239.47 273.954 239.402 273.695 239.427 C 273.775 239.857 274.274 239.634 274.412 240.008 C 273.731 240.233 273.039 240.039 272.373 240.134 C 272.353 240.132 272.331 240.131 272.307 240.131 C 271.794 239.637 271.09 239.579 270.468 239.337 C 270.211 239.237 269.914 239.222 269.677 239.092 C 267.772 238.046 265.745 237.241 263.886 236.096 C 262.429 235.199 260.896 234.428 259.482 233.456 C 259.157 233.232 258.806 233.041 258.439 232.53 C 259.235 232.875 259.84 233.138 260.445 233.401 C 260.422 233.395 260.398 233.391 260.373 233.387 C 261.116 234.161 262.171 234.404 263.004 235.048 C 263.188 234.783 262.964 234.73 262.929 234.615 C 262.868 234.417 262.982 234.281 263.148 234.186 C 263.23 234.14 263.347 234.051 263.395 234.184 C 263.607 234.77 264.092 234.578 264.489 234.558 C 264.928 234.536 265.191 234.751 265.419 235.074 C 265.77 235.572 266.227 235.844 266.859 235.727 C 267.004 235.806 267.15 235.885 267.295 235.965 C 267.633 236.513 269.086 237.206 269.661 237.092 C 269.709 237.419 270.344 237.489 270.046 237.968 C 269.69 238.136 269.523 238.228 270.014 238.528 C 270.634 238.908 271.415 238.763 271.982 239.238 C 272.066 239.308 272.179 239.292 272.234 239.179 C 272.306 239.032 272.231 238.909 272.093 238.901 C 271.494 238.865 271.035 238.434 270.46 238.345 C 270.218 238.307 270.005 238.263 270.022 237.949 C 271.097 237.657 271.923 238.427 272.883 238.627 C 273.011 238.653 272.722 239.148 273.122 238.94 C 273.317 238.839 273.388 238.521 273.143 238.295 Z" stroke-linecap="round" />
</g>
<g transform="matrix(1 0 0 1 691.9 600.41)"  >
<path style="stroke: none; stroke-width: 1; stroke-dasharray: none; stroke-linecap: butt; stroke-dashoffset: 0; stroke-linejoin: miter; stroke-miterlimit: 4; fill: rgb(255,255,255); fill-rule: evenodd; opacity: 1;" vector-effect="non-scaling-stroke"  transform=" translate(-319.5, -214.28)" d="M 321.962 216.265 C 322.401 216.379 322.773 216.223 323.128 216.052 C 323.315 215.962 323.457 215.894 323.56 216.118 C 323.653 216.323 323.517 216.467 323.362 216.558 C 322.969 216.789 322.505 216.785 322.101 216.709 C 320.561 216.418 319.182 215.728 317.9 214.838 C 317.519 214.574 317.167 214.251 316.754 214.055 C 316.004 213.699 315.733 212.997 315.443 212.331 C 315.307 212.019 315.732 211.917 315.958 211.829 C 316.087 211.779 316.354 211.852 316.443 211.963 C 317.299 213.034 318.71 213.085 319.786 213.765 C 320.14 213.989 320.798 213.808 321.268 214.097 C 321.639 214.324 322.085 214.424 322.297 214.893 C 322.418 215.164 322.758 214.917 322.984 215.023 C 323.1 215.078 323.236 215.105 323.267 215.241 C 323.298 215.377 323.197 215.562 323.107 215.545 C 322.5 215.435 322.416 216.147 321.962 216.265 Z" stroke-linecap="round" />
</g>
<g transform="matrix(0.66 0.91 -870.65 627.93 519.13 541.11)"  >
<path style="stroke: rgb(0,0,0); stroke-width: 4; stroke-dasharray: none; stroke-linecap: round; stroke-dashoffset: 0; stroke-linejoin: miter; stroke-miterlimit: 4; fill: none; fill-rule: nonzero; opacity: 1;" vector-effect="non-scaling-stroke"  transform=" translate(-157.57, -187.25)" d="M 123.283 187.253 L 191.855 187.253" stroke-linecap="round" />
</g>
<g transform="matrix(1 0 0 1 688.03 636.13)"  >
<path style="stroke: none; stroke-width: 1; stroke-dasharray: none; stroke-linecap: butt; stroke-dashoffset: 0; stroke-linejoin: miter; stroke-miterlimit: 4; fill: rgb(255,255,255); fill-rule: evenodd; opacity: 1;" vector-effect="non-scaling-stroke"  transform=" translate(-315.64, -250.01)" d="M 309.465 246.48 C 309.55 246.507 309.635 246.534 309.719 246.561 C 310.699 247.48 311.844 248.188 312.98 248.873 C 314.544 249.815 316.18 250.646 317.827 251.439 C 319.22 252.11 320.501 253.014 322.022 253.433 C 322.639 253.603 323.219 253.927 323.688 254.545 C 322.806 254.786 322.177 254.269 321.513 254 C 319.765 253.292 318.134 252.342 316.499 251.411 C 313.55 249.73 310.518 248.177 307.892 245.982 C 307.742 245.857 307.543 245.764 307.613 245.421 C 308.359 245.569 308.806 246.229 309.465 246.48 Z" stroke-linecap="round" />
</g>
<g transform="matrix(1 0 0 1 666.44 602.73)"  >
<path style="stroke: none; stroke-width: 1; stroke-dasharray: none; stroke-linecap: butt; stroke-dashoffset: 0; stroke-linejoin: miter; stroke-miterlimit: 4; fill: rgb(255,255,255); fill-rule: evenodd; opacity: 1;" vector-effect="non-scaling-stroke"  transform=" translate(-294.05, -216.61)" d="M 296.076 218.069 C 296.322 218.346 296.879 217.938 296.827 218.404 C 296.782 218.801 296.294 218.706 295.983 218.637 C 294.06 218.208 292.566 217.144 291.497 215.499 C 291.335 215.25 291.09 214.89 291.455 214.61 C 291.778 214.362 292.019 214.675 292.252 214.845 C 293.231 215.556 294.225 216.224 295.488 216.304 C 295.806 216.324 295.943 216.567 296.073 216.815 C 296.119 216.902 296.188 216.987 296.267 217.044 C 296.89 217.495 296.987 217.87 296.076 218.069 Z" stroke-linecap="round" />
</g>
<g transform="matrix(1 0 0 1 638.62 624.28)"  >
<path style="stroke: none; stroke-width: 1; stroke-dasharray: none; stroke-linecap: butt; stroke-dashoffset: 0; stroke-linejoin: miter; stroke-miterlimit: 4; fill: rgb(255,255,255); fill-rule: evenodd; opacity: 1;" vector-effect="non-scaling-stroke"  transform=" translate(-266.22, -238.15)" d="M 264.102 236.867 C 265.039 236.862 265.627 237.607 266.392 237.97 C 266.958 238.239 267.59 238.442 268.064 238.912 C 268.182 239.029 268.42 239.058 268.322 239.279 C 268.244 239.455 268.057 239.507 267.867 239.412 C 266.726 238.835 265.574 238.279 264.511 237.562 C 264.26 237.393 264.237 237.09 264.118 236.844 L 264.102 236.867 Z" stroke-linecap="round" />
</g>
<g transform="matrix(1 0 0 1 633.98 621.54)"  >
<path style="stroke: none; stroke-width: 1; stroke-dasharray: none; stroke-linecap: butt; stroke-dashoffset: 0; stroke-linejoin: miter; stroke-miterlimit: 4; fill: rgb(255,255,255); fill-rule: evenodd; opacity: 1;" vector-effect="non-scaling-stroke"  transform=" translate(-261.59, -235.41)" d="M 264.118 236.844 C 263.921 236.958 263.741 237.087 263.49 236.937 C 262.066 236.086 260.628 235.257 259.312 234.239 C 259.21 234.16 258.984 234.133 259.104 233.921 C 259.18 233.787 259.319 233.805 259.436 233.881 C 260.942 234.855 262.47 235.795 264.042 236.66 C 264.086 236.685 264.083 236.796 264.102 236.867 L 264.118 236.844 Z" stroke-linecap="round" />
</g>
<g transform="matrix(1 0 0 1 643.76 626.17)"  >
<path style="stroke: none; stroke-width: 1; stroke-dasharray: none; stroke-linecap: butt; stroke-dashoffset: 0; stroke-linejoin: miter; stroke-miterlimit: 4; fill: rgb(255,255,255); fill-rule: evenodd; opacity: 1;" vector-effect="non-scaling-stroke"  transform=" translate(-271.37, -240.04)" d="M 272.307 240.131 C 272.331 240.131 272.353 240.132 272.373 240.134 C 272.725 240.236 273.027 240.502 273.429 240.438 C 273.572 240.416 273.775 240.377 273.777 240.598 C 273.779 240.796 273.594 240.787 273.437 240.785 C 272.042 240.763 270.706 240.416 269.384 240.015 C 269.157 239.946 268.898 239.705 268.987 239.454 C 269.092 239.157 269.394 239.345 269.568 239.43 C 270.436 239.853 271.372 239.984 272.307 240.131 Z" stroke-linecap="round" />
</g>
<g transform="matrix(1 0 0 1 632.87 619)"  >
<path style="stroke: none; stroke-width: 1; stroke-dasharray: none; stroke-linecap: butt; stroke-dashoffset: 0; stroke-linejoin: miter; stroke-miterlimit: 4; fill: rgb(255,255,255); fill-rule: evenodd; opacity: 1;" vector-effect="non-scaling-stroke"  transform=" translate(-260.47, -232.88)" d="M 260.374 233.387 C 260.398 233.391 260.423 233.396 260.446 233.402 C 260.09 233.113 259.941 232.565 259.335 232.568 C 259.236 232.569 258.849 232.351 259.048 232.075 C 259.238 231.812 259.487 232.049 259.633 232.177 C 260.294 232.754 261.02 233.192 261.958 233.394 C 261.697 233.664 261.546 234.046 261.154 233.594 C 260.944 233.352 260.626 233.487 260.374 233.387 Z" stroke-linecap="round" />
</g>
<g transform="matrix(1 0 0 1 639.72 621.82)"  >
<path style="stroke: none; stroke-width: 1; stroke-dasharray: none; stroke-linecap: butt; stroke-dashoffset: 0; stroke-linejoin: miter; stroke-miterlimit: 4; fill: rgb(255,255,255); fill-rule: evenodd; opacity: 1;" vector-effect="non-scaling-stroke"  transform=" translate(-267.32, -235.7)" d="M 267.295 235.965 C 267.15 235.886 267.004 235.806 266.859 235.727 C 266.761 235.624 266.663 235.522 266.565 235.419 C 266.588 235.377 266.612 235.336 266.635 235.295 C 267.115 235.506 267.595 235.718 268.075 235.93 C 268.062 235.986 268.049 236.043 268.036 236.099 C 267.79 236.054 267.542 236.01 267.295 235.965 Z" stroke-linecap="round" />
</g>
<g transform="matrix(1 0 0 1 643.85 623.73)"  >
<path style="stroke: none; stroke-width: 1; stroke-dasharray: none; stroke-linecap: butt; stroke-dashoffset: 0; stroke-linejoin: miter; stroke-miterlimit: 4; fill: rgb(255,255,255); fill-rule: evenodd; opacity: 1;" vector-effect="non-scaling-stroke"  transform=" translate(-271.45, -237.61)" d="M 272.721 238.038 C 272.213 238.236 271.829 237.888 271.407 237.727 C 270.992 237.569 270.591 237.377 270.184 237.199 C 270.373 237.105 270.549 237.106 270.752 237.197 C 271.403 237.49 272.064 237.759 272.721 238.038 Z" stroke-linecap="round" />
</g>
<g transform="matrix(-0.6 0.38 -578.09 -904.52 548 560)"  >
<path style="stroke: rgb(0,0,0); stroke-width: 4; stroke-dasharray: none; stroke-linecap: round; stroke-dashoffset: 0; stroke-linejoin: miter; stroke-miterlimit: 4; fill: none; fill-rule: nonzero; opacity: 1;" vector-effect="non-scaling-stroke"  transform=" translate(-157.57, -187.25)" d="M 123.283 187.253 L 191.855 187.253" stroke-linecap="round" />
</g>
</svg>